<?xml version="1.0" encoding="utf-8"?>
<!-- Generator: Adobe Illustrator 27.0.0, SVG Export Plug-In . SVG Version: 6.00 Build 0)  -->
<svg version="1.1" id="Layer_1" xmlns="http://www.w3.org/2000/svg" xmlns:xlink="http://www.w3.org/1999/xlink" x="0px" y="0px"
	 viewBox="0 0 121.5 121.5" style="enable-background:new 0 0 121.5 121.5;" xml:space="preserve">
<style type="text/css">
	.st0{fill:#003282;}
	.st1{fill:#FFFFFF;}
	.st2{fill:none;stroke:#D8E3FC;stroke-width:2;}
	.st3{fill:#FAC346;}
	.st4{fill:none;stroke:#FAC346;stroke-width:2;}
	.st5{clip-path:url(#SVGID_00000160891927753584607040000007844576360250120594_);}
	.st6{clip-path:url(#SVGID_00000026134321929356225120000013050676112964489644_);fill:#003282;fill-opacity:0.3;}
	.st7{clip-path:url(#SVGID_00000130640444450010892830000002419459188842723754_);}
	.st8{fill:#7F98C0;}
	.st9{fill:#FFCD03;}
	.st10{clip-path:url(#SVGID_00000116953810882523950670000002530007966074508729_);}
	.st11{clip-path:url(#SVGID_00000101097527248709701560000011283480803512541363_);fill:#003282;fill-opacity:0.3;}
	.st12{fill:#464B50;}
	.st13{fill:none;}
	.st14{clip-path:url(#SVGID_00000112620071829535365440000001708615366399296397_);}
	.st15{clip-path:url(#SVGID_00000124121483760563726920000006642823683242610861_);fill:#C7CCCD;}
	.st16{fill:#C7CCCD;}
	.st17{fill:none;stroke:#C7CCCD;}
	.st18{clip-path:url(#SVGID_00000120543798294231215910000008029987416536953515_);}
	.st19{clip-path:url(#SVGID_00000127763797464384283830000017636980849438542507_);fill:#FFFFFF;fill-opacity:0.3;}
	.st20{fill:url(#SVGID_00000121263758303446974430000013126233924899154823_);}
	.st21{clip-path:url(#SVGID_00000023249460177977874930000014391805314569732488_);}
	.st22{clip-path:url(#SVGID_00000103948147502737006790000015087595378152623038_);fill:#FFFFFF;fill-opacity:0.5;}
	.st23{clip-path:url(#SVGID_00000067196414438422421880000000108448602953612205_);}
	.st24{fill:none;stroke:#003282;stroke-width:2;}
	.st25{fill:#003282;filter:url(#Adobe_OpacityMaskFilter);}
	.st26{mask:url(#mask2_1248_2703_00000003808877748130079490000009924346089726344347_);}
	.st27{clip-path:url(#SVGID_00000108999480963311662700000013548815970004097921_);}
	.st28{clip-path:url(#SVGID_00000053546086564921444230000009414943542684274608_);fill:#D8E3FC;}
	.st29{clip-path:url(#SVGID_00000170277537917088064650000013088805005406157501_);}
	.st30{clip-path:url(#SVGID_00000125574552477650704810000008639872186999975825_);fill:#C7CCCD;}
	.st31{fill:#D8E3FC;stroke:#003282;stroke-width:2;}
</style>
<path class="st31" d="M60.7,1L60.7,1c33,0,59.7,26.7,59.7,59.7l0,0c0,33-26.7,59.7-59.7,59.7l0,0C27.7,120.5,1,93.7,1,60.7l0,0
	C1,27.7,27.7,1,60.7,1z"/>
<path class="st0" d="M60.7,43.3c3.6,0,7,0.8,10.1,2.2c3.1,1.5,5.5,3.5,7.3,6C80,54,81,56.7,81,59.7S80,65.5,78.2,68
	c-1.8,2.5-4.3,4.5-7.3,5.9c-3.1,1.5-6.5,2.2-10.1,2.2c-3,0-5.8-0.5-8.5-1.5c-1.4,1.1-2.8,2-4.3,2.6c-2.2,1-4.5,1.4-6.8,1.4
	c-0.3,0-0.5-0.1-0.6-0.4c-0.2-0.3-0.1-0.5,0.1-0.7c0.6-0.6,1.2-1.3,1.8-2.3c1.3-1.8,2.1-3.6,2.5-5.2c-1.4-1.4-2.5-3.1-3.3-4.8
	c-0.8-1.7-1.2-3.6-1.2-5.5c0-3,0.9-5.7,2.7-8.2c1.8-2.5,4.3-4.5,7.3-6C53.6,44.1,57,43.3,60.7,43.3z M62.6,67.1
	c1.2-0.1,2.1-0.6,2.9-1.6c0.8-0.9,1.1-2.1,0.9-3.4c-0.2-0.9-0.5-1.7-1.1-2.3c-0.6-0.6-1.4-1.1-2.3-1.4l-4-1.2
	c-0.3,0-0.5-0.3-0.5-0.6c0-0.2,0-0.2,0.2-0.4c0.2-0.2,0.3-0.2,0.6-0.2h2.5c0.3,0,0.6,0.1,0.9,0.2c0.4,0.3,0.8,0.2,1.1-0.2l1.3-1.3
	c0.2-0.2,0.2-0.5,0.2-0.8c0-0.3-0.2-0.5-0.3-0.7c-0.8-0.5-1.6-0.7-2.5-0.9v-1.4c0-0.3-0.2-0.6-0.4-0.9c-0.2-0.2-0.6-0.4-0.9-0.4
	h-1.3c-0.4,0-0.7,0.2-0.9,0.4c-0.2,0.3-0.3,0.6-0.3,0.9v1.4c-1.3,0.2-2.2,0.7-3,1.7c-0.8,1-1,2.1-0.9,3.3c0.1,0.9,0.5,1.7,1.1,2.4
	c0.6,0.6,1.3,1.1,2.3,1.3l4,1.2c0.3,0.1,0.5,0.3,0.5,0.6c0,0.2-0.1,0.3-0.2,0.5c-0.2,0.2-0.3,0.2-0.5,0.2h-2.5c-0.3,0-0.6,0-0.9-0.2
	c-0.5-0.2-0.8-0.2-1.1,0.2l-1.3,1.3c-0.2,0.3-0.3,0.5-0.3,0.8c0,0.3,0.2,0.6,0.4,0.7c0.7,0.5,1.6,0.8,2.5,0.9v1.4
	c0,0.4,0.1,0.7,0.3,0.9c0.2,0.3,0.6,0.3,0.9,0.3h1.3c0.3,0,0.6-0.1,0.9-0.3c0.2-0.2,0.4-0.5,0.4-0.9V67.1z"/>
</svg>
