<?xml version="1.0" encoding="utf-8"?>
<!-- Generator: Adobe Illustrator 27.0.0, SVG Export Plug-In . SVG Version: 6.00 Build 0)  -->
<svg version="1.1" id="Layer_1" xmlns="http://www.w3.org/2000/svg" xmlns:xlink="http://www.w3.org/1999/xlink" x="0px" y="0px"
	 viewBox="0 0 121.5 121.5" style="enable-background:new 0 0 121.5 121.5;" xml:space="preserve">
<style type="text/css">
	.st0{fill:#003282;}
	.st1{fill:#FFFFFF;}
	.st2{fill:none;stroke:#D8E3FC;stroke-width:2;}
	.st3{fill:#FAC346;}
	.st4{fill:none;stroke:#FAC346;stroke-width:2;}
	.st5{clip-path:url(#SVGID_00000150076164845876939350000008447681609232218300_);}
	.st6{clip-path:url(#SVGID_00000029008809625026117780000012819439216351745175_);fill:#003282;fill-opacity:0.3;}
	.st7{clip-path:url(#SVGID_00000020384342995383223160000008072542527917216683_);}
	.st8{fill:#7F98C0;}
	.st9{fill:#FFCD03;}
	.st10{clip-path:url(#SVGID_00000142138310235345006260000007628757663234874778_);}
	.st11{clip-path:url(#SVGID_00000065051948806273554560000003634687160859419799_);fill:#003282;fill-opacity:0.3;}
	.st12{fill:#464B50;}
	.st13{fill:none;}
	.st14{clip-path:url(#SVGID_00000047782857610909512340000013204919930260978343_);}
	.st15{clip-path:url(#SVGID_00000021112714488805684890000015145150091985594792_);fill:#C7CCCD;}
	.st16{fill:#C7CCCD;}
	.st17{fill:none;stroke:#C7CCCD;}
	.st18{clip-path:url(#SVGID_00000072257317467608233000000000721828125058746797_);}
	.st19{clip-path:url(#SVGID_00000022540426045410006920000008868959660893160353_);fill:#FFFFFF;fill-opacity:0.3;}
	.st20{fill:url(#SVGID_00000165223463198079551430000018187955236284865446_);}
	.st21{clip-path:url(#SVGID_00000116929677006837890880000013303301186267820461_);}
	.st22{clip-path:url(#SVGID_00000139282269524345070950000011159085538824776601_);fill:#FFFFFF;fill-opacity:0.5;}
	.st23{clip-path:url(#SVGID_00000070107908422789515010000002926979638017408668_);}
	.st24{fill:none;stroke:#003282;stroke-width:2;}
	.st25{fill:#003282;filter:url(#Adobe_OpacityMaskFilter);}
	.st26{mask:url(#mask2_1248_2703_00000003808877748130079490000009924346089726344347_);}
	.st27{clip-path:url(#SVGID_00000008827374612314207480000016195376710648040880_);}
	.st28{clip-path:url(#SVGID_00000111891277796637411110000013968783246732175511_);fill:#D8E3FC;}
	.st29{clip-path:url(#SVGID_00000105392651517376135070000011953465398445723548_);}
	.st30{clip-path:url(#SVGID_00000134929076324865131590000014026206596604572570_);fill:#C7CCCD;}
	.st31{fill:#D8E3FC;stroke:#003282;stroke-width:2;}
</style>
<path class="st31" d="M60.7,1L60.7,1c33,0,59.7,26.7,59.7,59.7l0,0c0,33-26.7,59.7-59.7,59.7l0,0C27.7,120.5,1,93.7,1,60.7l0,0
	C1,27.7,27.7,1,60.7,1z"/>
<path class="st0" d="M79.7,50.9c0-0.3-0.2-0.4-0.4-0.6l-18.3-7c-0.2-0.1-0.3-0.1-0.5,0l-18.3,7c-0.3,0.2-0.4,0.3-0.4,0.6v1.3
	c0,0.2,0,0.3,0.2,0.5c0.2,0.2,0.3,0.2,0.5,0.2h1.9v0.9c0,0.3,0.1,0.6,0.2,0.7c0.2,0.2,0.4,0.2,0.7,0.2h31c0.2,0,0.5-0.1,0.6-0.2
	c0.2-0.2,0.3-0.4,0.3-0.7v-0.9h1.9c0.2,0,0.2,0,0.4-0.2c0.2-0.2,0.2-0.3,0.2-0.5V50.9z M77.8,74.9c0.5,0,1,0.3,1.3,0.6
	c0.3,0.4,0.6,0.9,0.6,1.3V78c0,0.2-0.1,0.3-0.2,0.5c-0.2,0.2-0.2,0.2-0.4,0.2H42.4c-0.2,0-0.3,0-0.5-0.2c-0.2-0.2-0.2-0.3-0.2-0.5
	v-1.3c0-0.5,0.2-0.9,0.6-1.3c0.3-0.3,0.8-0.6,1.3-0.6H77.8z M48.1,55.9h5.1v15.2h5.1V55.9h5.1v15.2h5.1V55.9h5.1v15.2h2.8
	c0.2,0,0.5,0.2,0.6,0.3c0.2,0.2,0.3,0.4,0.3,0.6v1.6H44.3v-1.6c0-0.3,0.1-0.5,0.2-0.6c0.2-0.2,0.4-0.3,0.7-0.3h2.8V55.9z"/>
</svg>
