<?xml version="1.0" encoding="utf-8"?>
<!-- Generator: Adobe Illustrator 27.0.0, SVG Export Plug-In . SVG Version: 6.00 Build 0)  -->
<svg version="1.1" id="Layer_1" xmlns="http://www.w3.org/2000/svg" xmlns:xlink="http://www.w3.org/1999/xlink" x="0px" y="0px"
	 viewBox="0 0 121.5 121.5" style="enable-background:new 0 0 121.5 121.5;" xml:space="preserve">
<style type="text/css">
	.st0{fill:#003282;}
	.st1{fill:#FFFFFF;}
	.st2{fill:none;stroke:#D8E3FC;stroke-width:2;}
	.st3{fill:#FAC346;}
	.st4{fill:none;stroke:#FAC346;stroke-width:2;}
	.st5{clip-path:url(#SVGID_00000150067452839513109750000011876206766321287344_);}
	.st6{clip-path:url(#SVGID_00000022555508212685687010000013535030840143306425_);fill:#003282;fill-opacity:0.3;}
	.st7{clip-path:url(#SVGID_00000035499513792735552170000006841285744612692891_);}
	.st8{fill:#7F98C0;}
	.st9{fill:#FFCD03;}
	.st10{clip-path:url(#SVGID_00000058557450540691026760000010348335772693498269_);}
	.st11{clip-path:url(#SVGID_00000147219563922782055330000000332193488082814372_);fill:#003282;fill-opacity:0.3;}
	.st12{fill:#464B50;}
	.st13{fill:none;}
	.st14{clip-path:url(#SVGID_00000043439614866257388390000004165060428832974468_);}
	.st15{clip-path:url(#SVGID_00000116925928147918155380000014099306966342267320_);fill:#C7CCCD;}
	.st16{fill:#C7CCCD;}
	.st17{fill:none;stroke:#C7CCCD;}
	.st18{clip-path:url(#SVGID_00000057124621895039628890000006544016844729524121_);}
	.st19{clip-path:url(#SVGID_00000045596893241600751500000010722012543199705532_);fill:#FFFFFF;fill-opacity:0.3;}
	.st20{fill:url(#SVGID_00000072977942062859615230000006907001427039807901_);}
	.st21{clip-path:url(#SVGID_00000069360408035825536250000017395889362624524709_);}
	.st22{clip-path:url(#SVGID_00000175283394953459955150000013348287816838370738_);fill:#FFFFFF;fill-opacity:0.5;}
	.st23{clip-path:url(#SVGID_00000150806129103034950370000008523337825031864711_);}
	.st24{fill:none;stroke:#003282;stroke-width:2;}
	.st25{fill:#003282;filter:url(#Adobe_OpacityMaskFilter);}
	.st26{mask:url(#mask2_1248_2703_00000003808877748130079490000009924346089726344347_);}
	.st27{clip-path:url(#SVGID_00000098906171942112652990000014330047549388255922_);}
	.st28{clip-path:url(#SVGID_00000106848127936807857780000005659963659469375108_);fill:#D8E3FC;}
	.st29{clip-path:url(#SVGID_00000114069741374007979990000014680016713474849679_);}
	.st30{clip-path:url(#SVGID_00000036944943779684411430000016625027567801095559_);fill:#C7CCCD;}
	.st31{fill:#D8E3FC;stroke:#003282;stroke-width:2;}
</style>
<path class="st31" d="M60.7,1L60.7,1c33,0,59.7,26.7,59.7,59.7l0,0c0,33-26.7,59.7-59.7,59.7l0,0C27.7,120.5,1,93.7,1,60.7l0,0
	C1,27.7,27.7,1,60.7,1z"/>
<path class="st0" d="M49.2,48.9v2.2c3.2,1.4,7.2,2.3,11.5,2.3c4.3,0,8.2-0.9,11.5-2.3v-2.2l1.7-1.7c0.4-0.4,0.6-0.9,0.6-1.4
	c0-0.9-0.6-1.7-1.4-1.9l-11.8-3c-0.4-0.1-0.8-0.1-1.2,0l-11.7,3c-0.9,0.3-1.5,1-1.5,1.9c0,0.6,0.2,1,0.6,1.4L49.2,48.9z M58.1,45.7
	l2.4-1c0,0,0.2-0.1,0.2-0.1l0.2,0.1l2.4,1c0.2,0.1,0.4,0.2,0.4,0.5c0,3.2-2.3,4.8-3,4.8c-0.6,0-2.9-1.5-2.9-4.8
	C57.7,45.9,57.9,45.7,58.1,45.7z M50.7,54.4c-0.1,0.5-0.1,1-0.1,1.5c0,5.6,4.5,10.1,10,10.1c5.5,0,10-4.5,10-10.1
	c0-0.5-0.1-1-0.2-1.5c-2.9,1-6.3,1.5-9.8,1.5C57.2,55.9,53.8,55.4,50.7,54.4z M68.3,68.6h-2.5l-5.1,5.1l-5.1-5.1h-2.5
	c-5.6,0-10.1,4.6-10.1,10.1c0,1.4,1.1,2.5,2.5,2.5h30.4c1.3,0,2.5-1.1,2.5-2.5C78.4,73.2,73.9,68.6,68.3,68.6z M71.3,75.4l-1.3,1.2
	l0.3,1.7c0.1,0.3-0.3,0.5-0.6,0.4l-1.5-0.8l-1.6,0.8c-0.3,0.2-0.6-0.1-0.6-0.4l0.3-1.7l-1.3-1.2c-0.2-0.2-0.1-0.6,0.2-0.6l1.7-0.3
	l0.8-1.5c0.2-0.3,0.6-0.3,0.7,0l0.8,1.5l1.7,0.3C71.4,74.7,71.6,75.1,71.3,75.4z"/>
</svg>
