<?xml version="1.0" encoding="utf-8"?>
<!-- Generator: Adobe Illustrator 26.5.0, SVG Export Plug-In . SVG Version: 6.00 Build 0)  -->
<svg version="1.1" id="Layer_1" xmlns="http://www.w3.org/2000/svg" xmlns:xlink="http://www.w3.org/1999/xlink" x="0px" y="0px"
	 viewBox="0 0 258.2 118.2" style="enable-background:new 0 0 258.2 118.2;" xml:space="preserve">
<style type="text/css">
	.st0{fill:#253B7C;}
	.st1{fill:#8098C1;}
	.st2{fill:#FFCD03;}
	.st3{fill:none;stroke:#BCBEC0;stroke-width:0.25;}
	.st4{fill:#FFFFFF;}
	.st5{font-family:'TradeGothicNextLTPro-HvCm';}
	.st6{font-size:25.9481px;}
	.st7{font-size:26.8131px;}
	.st8{font-size:29.155px;}
	.st9{fill:none;stroke:#FFFFFF;stroke-width:0.25;}
</style>
<g>
	<text transform="matrix(1 0 0 1 110.4892 22.2892)" class="st4 st5 st6"> </text>
	<text transform="matrix(1 0 0 1 116.6127 22.2892)" class="st4 st5 st6"> </text>
	<text transform="matrix(1 0 0 1 110.4892 46.0754)" class="st0 st5 st7"> </text>
	<g>
		<path class="st4" d="M129.3,70.4l-0.7-6.7h-3.8l-0.6,6.7h-6.4l4.8-31.1h8l5.1,31.1H129.3z M125.3,58.1h2.7l-1.3-11.7h-0.2
			L125.3,58.1z"/>
		<path class="st4" d="M150,70.4L144.2,54h-0.1v16.3h-5.3V39.3h6l4.8,14.1h0.1V39.3h5.4v31.1H150z"/>
		<path class="st4" d="M168.5,47.7c-0.1-1.6-0.5-3.4-2.1-3.4c-1.1,0-1.6,0.8-1.6,1.8c0,5.8,9.6,7.5,9.6,16.7c0,4.9-3,8-8.1,8
			c-5.7,0-7.5-3-7.8-8.4l5.8-0.4c0.2,2.4,0.6,3.6,2.1,3.6c1.1,0,1.8-0.8,1.8-2.3c0-5.9-9.3-7.7-9.3-16.6c0-4.5,2.5-7.6,7.4-7.6
			c5.9,0,7.4,3.8,7.7,8.3L168.5,47.7z"/>
		<path class="st4" d="M191.2,70.4L189.3,52h-0.1l-1.5,18.3h-6.3l-4.8-31.1h6l1.9,18h0.1l1.9-18h5.9l2.1,18h0.1l1.6-18h6l-4.6,31.1
			H191.2z"/>
		<path class="st4" d="M205.3,70.4V39.3h13.9v5.8h-7.7v6.4h6.1v5.6h-6.1v7.4h8.1v5.8H205.3z"/>
		<path class="st4" d="M233.7,70.4l-2.5-12h-1.4v12h-6.2V39.3h7.6c5.4,0,8.4,2,8.4,8.7c0,3.7-1.2,5.9-2.9,7.1l3.8,15.3H233.7z
			 M230.4,53.1c2,0,2.6-1,2.6-4.3c0-4.2-1.7-4.2-2.6-4.2h-0.6v8.5H230.4z"/>
		<path class="st4" d="M252.3,47.7c-0.1-1.6-0.5-3.4-2.1-3.4c-1.1,0-1.6,0.8-1.6,1.8c0,5.8,9.6,7.5,9.6,16.7c0,4.9-3,8-8.1,8
			c-5.7,0-7.5-3-7.8-8.4l5.8-0.4c0.2,2.4,0.6,3.6,2.1,3.6c1.1,0,1.8-0.8,1.8-2.3c0-5.9-9.3-7.7-9.3-16.6c0-4.5,2.5-7.6,7.4-7.6
			c5.9,0,7.4,3.8,7.7,8.3L252.3,47.7z"/>
	</g>
	<text transform="matrix(1 0 0 1 185.5329 70.3723)" class="st0 st5 st8"> </text>
	<g>
		<path class="st4" d="M142.2,33.3V12.4h4.3v20.9H142.2z"/>
		<path class="st4" d="M150.8,33.3V12.4h4.2v17h5.2v3.9H150.8z"/>
		<path class="st4" d="M163.6,33.3V12.4h4.2v17h5.2v3.9H163.6z"/>
		<path class="st4" d="M176.3,33.3V12.4h4.3v20.9H176.3z"/>
		<path class="st4" d="M192.4,33.3l-4-11h-0.1v11h-3.6V12.4h4l3.3,9.5h0.1v-9.5h3.6v20.9H192.4z"/>
		<path class="st4" d="M199.7,22.9c0-7.9,1.4-10.7,5.8-10.7c4.3,0,5.8,2.9,5.8,10.7c0,7-1.2,10.7-5.8,10.7
			C200.9,33.6,199.7,29.9,199.7,22.9z M206.8,22.9c0-5.6-0.3-6.9-1.3-6.9c-1,0-1.3,1.3-1.3,6.9c0,6.2,0.5,7,1.3,7
			C206.4,29.9,206.8,29.1,206.8,22.9z"/>
		<path class="st4" d="M215.2,33.3V12.4h4.3v20.9H215.2z"/>
		<path class="st4" d="M229.7,18c-0.1-1.1-0.3-2.3-1.4-2.3c-0.8,0-1,0.5-1,1.2c0,3.9,6.5,5,6.5,11.3c0,3.3-2,5.4-5.5,5.4
			c-3.8,0-5-2-5.3-5.7l3.9-0.3c0.1,1.6,0.4,2.4,1.4,2.4c0.7,0,1.2-0.5,1.2-1.5c0-4-6.3-5.2-6.3-11.2c0-3.1,1.7-5.1,5-5.1
			c4,0,5,2.6,5.2,5.6L229.7,18z"/>
	</g>
	<g>
		<path class="st4" d="M142.8,97V76.1h4.7c4.1,0,6.3,1.9,6.3,6.4c0,4.1-2,6.6-6.3,6.6H147V97H142.8z M147.6,85.4
			c0.9,0,1.7-0.7,1.7-2.8c0-2.1-0.7-2.5-1.7-2.5H147v5.4H147.6z"/>
		<path class="st4" d="M164.3,97l-1.7-8.1h-1V97h-4.2V76.1h5.1c3.7,0,5.7,1.4,5.7,5.8c0,2.5-0.8,4-2,4.8l2.5,10.3H164.3z M162,85.4
			c1.3,0,1.8-0.7,1.8-2.9c0-2.8-1.1-2.8-1.8-2.8h-0.4v5.7H162z"/>
		<path class="st4" d="M171.4,86.6c0-7.9,1.4-10.7,5.8-10.7c4.3,0,5.8,2.9,5.8,10.7c0,7-1.2,10.7-5.8,10.7
			C172.6,97.2,171.4,93.5,171.4,86.6z M178.5,86.6c0-5.6-0.3-6.9-1.3-6.9c-1,0-1.3,1.3-1.3,6.9c0,6.2,0.5,7,1.3,7
			S178.5,92.7,178.5,86.6z"/>
		<path class="st4" d="M187.2,97.2c-0.4,0-1.2,0-1.8-0.1v-3.9c0.3,0.1,0.8,0.1,1,0.1c1.3,0,1.8-0.7,1.8-1.9V76.1h4.2v15.2
			C192.4,95.1,191.1,97.2,187.2,97.2z"/>
		<path class="st4" d="M196.7,97V76.1h9.4V80H201v4.3h4.1v3.8H201v5h5.5V97H196.7z"/>
		<path class="st4" d="M220.8,89.5c-0.1,4.2-1.1,7.7-5.4,7.7c-5,0-5.6-4.3-5.6-10.8c0-4.8,0.3-10.6,5.5-10.6c4.5,0,5.2,3.3,5.3,7.3
			h-3.9c-0.1-2-0.3-3.4-1.2-3.4c-1,0-1.3,1.4-1.3,6.7c0,6.1,0.3,7,1.3,7c1,0,1.2-1.6,1.3-4H220.8z"/>
		<path class="st4" d="M226,97V80h-2.9v-3.9h9.9V80h-2.9v17H226z"/>
	</g>
	<g>
		<path class="st4" d="M39.1,30.2h26.6c0,0,1.3,4.3,1.6,5.4c0.3,1.1,1.5,4.3,1.5,4.3l-0.4,31c0,0-1.1,1.8-0.9,2.5
			c0.2,0.7,1.6,3,1.1,4.5c-0.5,1.5-4.8,7.6-4.9,8.9c-0.1,1.2,0.2,3.5-0.4,4c-0.6,0.5,0.2,3.4-0.6,3.4c-0.8,0-3.4,0.2-3.3,0.8
			c0.1,0.6,0.7,3.5-0.8,3.3c-1.5-0.2-3.8-2.1-4.1-1.5c-0.3,0.6-1.9,3.9-2.4,3.5c-0.5-0.4-2.4-3.7-2.4-4.4s0.3-1.8-1.1-4.3
			C47.2,89,46.1,88.6,45,88c-1.1-0.6-3.8-3.8-3.6-4.9c0.2-1.1,2.5-5.4,1.8-6.1c-0.7-0.7-3.2-1.9-4-1.4c-0.8,0.5-1.5-2.3-1.7-3.3
			c-0.2-0.9-5.7-5.5-6.3-7c-0.6-1.5-1.2-4.4,0-6.8c1.2-2.4,0-3,0.6-3.5c0.6-0.5,2.7-1.1,3-2.4c0.3-1.3,1.5-3.6,0.7-4.4
			c-0.8-0.8-1.9-3.1-1.1-3.6c0.8-0.5,3.7-0.9,4.4-1.2c0.7-0.3,3.7-2.2,4-3.7c0.3-1.4,1.1-4.2,0.2-4.8C42.1,34.3,39.1,30.2,39.1,30.2
			"/>
		<path class="st2" d="M89.7,96c0.9,3.1,3.2,10.6,3.3,13.5c-2.9-0.4-10.2-3.3-13.1-4.5c-5-2-5.5-2.2-6.7-1.6
			c-17.7,9.7-39.6,6.1-53.2-8.9C3.8,76.7,5,48.8,22.8,32.3C40.6,15.9,68.3,17.1,84.6,35c13.6,15,15.4,37.3,4.2,54.2
			C88,90.3,88.2,90.9,89.7,96 M97,93.1c12.8-20.1,10.6-46.2-5.6-63.9C71.8,7.8,38.4,6.4,17,26c-21.4,19.6-22.9,53-3.2,74.4
			c16.2,17.7,42,22.2,63.1,11.1c0.9,0.3,2.4,0.9,3.8,1.5c12.6,5,17.5,6.4,19.9,4.2l0,0c2.4-2.2,1.4-7.2-2.5-20.2
			C97.7,95.6,97.2,94,97,93.1"/>
	</g>
	<g>
		<path class="st4" d="M122.2,116.3v-5.5h1.2v5.5H122.2z"/>
		<path class="st4" d="M127.2,112.1c0.4,0,0.8,0.1,1.1,0.4c0.3,0.2,0.4,0.6,0.4,1.2v2.7h-1.1v-2.5c0-0.3-0.1-0.5-0.2-0.7
			c-0.1-0.2-0.3-0.2-0.5-0.2c-0.4,0-0.6,0.1-0.7,0.4c-0.1,0.2-0.2,0.6-0.2,1v2h-1.1v-4.2h0.9l0.2,0.5h0.1c0.1-0.1,0.2-0.3,0.3-0.4
			c0.1-0.1,0.3-0.2,0.4-0.2C126.9,112.1,127.1,112.1,127.2,112.1z"/>
		<path class="st4" d="M131,116.3l-1.6-4.2h1.2l0.8,2.4c0,0.1,0.1,0.3,0.1,0.4c0,0.2,0,0.3,0.1,0.4h0c0-0.1,0-0.3,0.1-0.4
			c0-0.2,0.1-0.3,0.1-0.4l0.8-2.4h1.2l-1.6,4.2H131z"/>
		<path class="st4" d="M136.3,112.1c0.4,0,0.7,0.1,1,0.2c0.3,0.1,0.5,0.4,0.6,0.6c0.2,0.3,0.2,0.6,0.2,1v0.6h-2.7
			c0,0.3,0.1,0.6,0.3,0.8c0.2,0.2,0.4,0.3,0.8,0.3c0.3,0,0.5,0,0.7-0.1s0.5-0.1,0.7-0.2v0.9c-0.2,0.1-0.4,0.2-0.7,0.2
			c-0.2,0-0.5,0.1-0.8,0.1c-0.4,0-0.8-0.1-1.1-0.2c-0.3-0.2-0.6-0.4-0.8-0.7c-0.2-0.3-0.3-0.7-0.3-1.2c0-0.5,0.1-0.9,0.2-1.2
			c0.2-0.3,0.4-0.6,0.7-0.7C135.6,112.2,135.9,112.1,136.3,112.1z M136.3,112.9c-0.2,0-0.4,0.1-0.6,0.2c-0.1,0.1-0.2,0.4-0.3,0.7
			h1.6c0-0.2,0-0.3-0.1-0.5c-0.1-0.1-0.1-0.2-0.3-0.3C136.6,112.9,136.5,112.9,136.3,112.9z"/>
		<path class="st4" d="M142.2,115.1c0,0.3-0.1,0.5-0.2,0.7c-0.1,0.2-0.3,0.3-0.6,0.4c-0.3,0.1-0.6,0.2-1,0.2c-0.3,0-0.5,0-0.8-0.1
			c-0.2,0-0.4-0.1-0.6-0.2v-0.9c0.2,0.1,0.5,0.2,0.7,0.3c0.3,0.1,0.5,0.1,0.7,0.1c0.2,0,0.4,0,0.5-0.1c0.1-0.1,0.1-0.2,0.1-0.3
			c0-0.1,0-0.1-0.1-0.2c0-0.1-0.1-0.1-0.2-0.2c-0.1-0.1-0.3-0.2-0.6-0.3c-0.3-0.1-0.5-0.2-0.6-0.3c-0.2-0.1-0.3-0.2-0.4-0.4
			c-0.1-0.2-0.1-0.3-0.1-0.6c0-0.4,0.2-0.7,0.5-0.9c0.3-0.2,0.7-0.3,1.2-0.3c0.3,0,0.5,0,0.7,0.1c0.2,0.1,0.5,0.1,0.7,0.3l-0.3,0.8
			c-0.2-0.1-0.4-0.2-0.6-0.2c-0.2-0.1-0.4-0.1-0.6-0.1c-0.2,0-0.3,0-0.4,0.1c-0.1,0-0.1,0.1-0.1,0.2c0,0.1,0,0.1,0.1,0.2
			c0,0.1,0.1,0.1,0.3,0.2c0.1,0.1,0.3,0.1,0.6,0.2c0.2,0.1,0.4,0.2,0.6,0.3c0.2,0.1,0.3,0.2,0.4,0.4
			C142.2,114.7,142.2,114.9,142.2,115.1z"/>
		<path class="st4" d="M145,115.5c0.1,0,0.2,0,0.4,0c0.1,0,0.2-0.1,0.4-0.1v0.9c-0.1,0.1-0.3,0.1-0.5,0.1c-0.2,0-0.4,0.1-0.6,0.1
			c-0.3,0-0.5,0-0.7-0.1c-0.2-0.1-0.4-0.2-0.5-0.4c-0.1-0.2-0.2-0.5-0.2-0.8v-2h-0.5v-0.5l0.6-0.4l0.3-0.9h0.7v0.9h1.2v0.9h-1.2v2
			c0,0.2,0,0.3,0.1,0.4C144.7,115.5,144.9,115.5,145,115.5z"/>
		<path class="st4" d="M147.3,110.5c0.2,0,0.3,0,0.4,0.1c0.1,0.1,0.2,0.2,0.2,0.4c0,0.2-0.1,0.4-0.2,0.4c-0.1,0.1-0.3,0.1-0.4,0.1
			c-0.2,0-0.3,0-0.4-0.1c-0.1-0.1-0.2-0.2-0.2-0.4c0-0.2,0.1-0.4,0.2-0.4C147,110.5,147.1,110.5,147.3,110.5z M147.9,112.2v4.2h-1.1
			v-4.2H147.9z"/>
		<path class="st4" d="M150.5,118.2c-0.6,0-1-0.1-1.3-0.3c-0.3-0.2-0.5-0.5-0.5-0.9c0-0.3,0.1-0.5,0.2-0.6c0.2-0.2,0.4-0.3,0.7-0.4
			c-0.1-0.1-0.2-0.1-0.3-0.2c-0.1-0.1-0.1-0.2-0.1-0.4c0-0.2,0-0.3,0.1-0.4c0.1-0.1,0.2-0.2,0.4-0.3c-0.2-0.1-0.4-0.2-0.5-0.5
			c-0.1-0.2-0.2-0.5-0.2-0.7c0-0.3,0.1-0.6,0.2-0.8c0.1-0.2,0.3-0.4,0.6-0.5c0.3-0.1,0.6-0.2,0.9-0.2c0.1,0,0.2,0,0.3,0
			c0.1,0,0.2,0,0.3,0c0.1,0,0.1,0,0.2,0h1.5v0.6l-0.7,0.2c0.1,0.1,0.1,0.2,0.1,0.3s0,0.2,0,0.3c0,0.5-0.2,0.8-0.5,1.1
			c-0.3,0.3-0.8,0.4-1.3,0.4c-0.1,0-0.3,0-0.4,0c-0.1,0-0.1,0.1-0.1,0.1s0,0.1,0,0.2c0,0.1,0,0.1,0.1,0.1c0,0,0.1,0.1,0.2,0.1
			c0.1,0,0.2,0,0.4,0h0.7c0.5,0,0.8,0.1,1.1,0.3c0.2,0.2,0.4,0.5,0.4,0.9c0,0.5-0.2,0.9-0.6,1.1
			C151.8,118.1,151.2,118.2,150.5,118.2z M150.5,117.4c0.3,0,0.5,0,0.7-0.1c0.2-0.1,0.3-0.1,0.5-0.2c0.1-0.1,0.2-0.2,0.2-0.3
			c0-0.1,0-0.2-0.1-0.2c-0.1-0.1-0.2-0.1-0.3-0.1c-0.1,0-0.3,0-0.5,0h-0.6c-0.1,0-0.3,0-0.4,0.1c-0.1,0-0.2,0.1-0.3,0.2
			c-0.1,0.1-0.1,0.2-0.1,0.3c0,0.2,0.1,0.3,0.2,0.4C150,117.4,150.2,117.4,150.5,117.4z M150.7,114.3c0.2,0,0.4-0.1,0.5-0.2
			c0.1-0.1,0.2-0.3,0.2-0.5c0-0.3-0.1-0.4-0.2-0.6c-0.1-0.1-0.3-0.2-0.5-0.2c-0.2,0-0.4,0.1-0.5,0.2c-0.1,0.1-0.2,0.3-0.2,0.6
			c0,0.2,0.1,0.4,0.2,0.5C150.3,114.2,150.5,114.3,150.7,114.3z"/>
		<path class="st4" d="M155.5,112.1c0.6,0,1,0.1,1.3,0.4s0.5,0.6,0.5,1.1v2.8h-0.8l-0.2-0.6h0c-0.1,0.2-0.2,0.3-0.4,0.4
			c-0.1,0.1-0.3,0.2-0.4,0.2c-0.2,0-0.4,0.1-0.6,0.1c-0.2,0-0.5,0-0.7-0.1c-0.2-0.1-0.4-0.2-0.5-0.4c-0.1-0.2-0.2-0.4-0.2-0.7
			c0-0.4,0.2-0.8,0.5-1c0.3-0.2,0.8-0.3,1.4-0.4l0.7,0v-0.2c0-0.2-0.1-0.4-0.2-0.5c-0.1-0.1-0.3-0.2-0.5-0.2c-0.2,0-0.4,0-0.6,0.1
			c-0.2,0.1-0.4,0.1-0.6,0.2l-0.4-0.8c0.2-0.1,0.5-0.2,0.7-0.3C154.9,112.1,155.2,112.1,155.5,112.1z M156.1,114.4l-0.4,0
			c-0.4,0-0.6,0.1-0.8,0.2c-0.1,0.1-0.2,0.3-0.2,0.5c0,0.2,0.1,0.3,0.2,0.4c0.1,0.1,0.2,0.1,0.4,0.1c0.2,0,0.5-0.1,0.6-0.2
			c0.2-0.1,0.3-0.4,0.3-0.6V114.4z"/>
		<path class="st4" d="M160.3,115.5c0.1,0,0.2,0,0.4,0c0.1,0,0.2-0.1,0.4-0.1v0.9c-0.1,0.1-0.3,0.1-0.5,0.1c-0.2,0-0.4,0.1-0.6,0.1
			c-0.3,0-0.5,0-0.7-0.1c-0.2-0.1-0.4-0.2-0.5-0.4c-0.1-0.2-0.2-0.5-0.2-0.8v-2h-0.5v-0.5l0.6-0.4l0.3-0.9h0.7v0.9h1.2v0.9h-1.2v2
			c0,0.2,0,0.3,0.1,0.4C160,115.5,160.2,115.5,160.3,115.5z"/>
		<path class="st4" d="M162.6,110.5c0.2,0,0.3,0,0.4,0.1c0.1,0.1,0.2,0.2,0.2,0.4c0,0.2-0.1,0.4-0.2,0.4c-0.1,0.1-0.3,0.1-0.4,0.1
			c-0.2,0-0.3,0-0.4-0.1c-0.1-0.1-0.2-0.2-0.2-0.4c0-0.2,0.1-0.4,0.2-0.4C162.3,110.5,162.4,110.5,162.6,110.5z M163.2,112.2v4.2
			H162v-4.2H163.2z"/>
		<path class="st4" d="M168.3,114.2c0,0.4,0,0.7-0.1,0.9c-0.1,0.3-0.2,0.5-0.4,0.7c-0.2,0.2-0.4,0.3-0.6,0.4
			c-0.3,0.1-0.5,0.1-0.9,0.1c-0.3,0-0.6,0-0.8-0.1c-0.2-0.1-0.5-0.2-0.6-0.4c-0.2-0.2-0.3-0.4-0.4-0.7c-0.1-0.3-0.1-0.6-0.1-0.9
			c0-0.5,0.1-0.9,0.2-1.2s0.4-0.6,0.7-0.7c0.3-0.2,0.7-0.3,1.1-0.3c0.4,0,0.7,0.1,1,0.3c0.3,0.2,0.5,0.4,0.7,0.7
			C168.2,113.4,168.3,113.8,168.3,114.2z M165.4,114.2c0,0.3,0,0.5,0.1,0.7s0.2,0.3,0.3,0.4s0.3,0.1,0.5,0.1c0.2,0,0.4,0,0.5-0.1
			c0.1-0.1,0.2-0.2,0.3-0.4c0.1-0.2,0.1-0.4,0.1-0.7c0-0.3,0-0.5-0.1-0.7c-0.1-0.2-0.2-0.3-0.3-0.4s-0.3-0.1-0.5-0.1
			c-0.3,0-0.5,0.1-0.7,0.3C165.5,113.5,165.4,113.8,165.4,114.2z"/>
		<path class="st4" d="M171.8,112.1c0.4,0,0.8,0.1,1.1,0.4c0.3,0.2,0.4,0.6,0.4,1.2v2.7h-1.1v-2.5c0-0.3-0.1-0.5-0.2-0.7
			c-0.1-0.2-0.3-0.2-0.5-0.2c-0.4,0-0.6,0.1-0.7,0.4c-0.1,0.2-0.2,0.6-0.2,1v2h-1.1v-4.2h0.9l0.2,0.5h0.1c0.1-0.1,0.2-0.3,0.3-0.4
			c0.1-0.1,0.3-0.2,0.4-0.2C171.5,112.1,171.6,112.1,171.8,112.1z"/>
		<path class="st4" d="M177.6,115.1c0,0.3-0.1,0.5-0.2,0.7c-0.1,0.2-0.3,0.3-0.6,0.4c-0.3,0.1-0.6,0.2-1,0.2c-0.3,0-0.5,0-0.8-0.1
			c-0.2,0-0.4-0.1-0.6-0.2v-0.9c0.2,0.1,0.5,0.2,0.7,0.3c0.3,0.1,0.5,0.1,0.7,0.1c0.2,0,0.4,0,0.5-0.1c0.1-0.1,0.1-0.2,0.1-0.3
			c0-0.1,0-0.1-0.1-0.2c0-0.1-0.1-0.1-0.2-0.2c-0.1-0.1-0.3-0.2-0.6-0.3c-0.3-0.1-0.5-0.2-0.6-0.3c-0.2-0.1-0.3-0.2-0.4-0.4
			c-0.1-0.2-0.1-0.3-0.1-0.6c0-0.4,0.2-0.7,0.5-0.9c0.3-0.2,0.7-0.3,1.2-0.3c0.3,0,0.5,0,0.7,0.1c0.2,0.1,0.5,0.1,0.7,0.3l-0.3,0.8
			c-0.2-0.1-0.4-0.2-0.6-0.2c-0.2-0.1-0.4-0.1-0.6-0.1c-0.2,0-0.3,0-0.4,0.1c-0.1,0-0.1,0.1-0.1,0.2c0,0.1,0,0.1,0.1,0.2
			c0,0.1,0.1,0.1,0.3,0.2c0.1,0.1,0.3,0.1,0.6,0.2c0.2,0.1,0.4,0.2,0.6,0.3c0.2,0.1,0.3,0.2,0.4,0.4
			C177.5,114.7,177.6,114.9,177.6,115.1z"/>
		<path class="st4" d="M178.5,115.8c0-0.2,0.1-0.4,0.2-0.5c0.1-0.1,0.3-0.1,0.5-0.1c0.2,0,0.3,0,0.5,0.1c0.1,0.1,0.2,0.3,0.2,0.5
			c0,0.2-0.1,0.4-0.2,0.5c-0.1,0.1-0.3,0.2-0.5,0.2c-0.2,0-0.3-0.1-0.5-0.2C178.5,116.2,178.5,116,178.5,115.8z"/>
		<path class="st4" d="M186.4,114.8c0,0.3-0.1,0.6-0.2,0.8c-0.2,0.2-0.4,0.4-0.7,0.6c-0.3,0.1-0.7,0.2-1.1,0.2c-0.2,0-0.4,0-0.6,0
			c-0.2,0-0.4-0.1-0.5-0.1c-0.2,0-0.3-0.1-0.5-0.2V115c0.3,0.1,0.5,0.2,0.8,0.3c0.3,0.1,0.6,0.1,0.8,0.1c0.2,0,0.3,0,0.5-0.1
			c0.1-0.1,0.2-0.1,0.3-0.2c0.1-0.1,0.1-0.2,0.1-0.3c0-0.1,0-0.3-0.1-0.4c-0.1-0.1-0.2-0.2-0.4-0.3c-0.2-0.1-0.3-0.2-0.5-0.3
			c-0.1-0.1-0.3-0.1-0.4-0.2c-0.2-0.1-0.3-0.2-0.4-0.3c-0.1-0.1-0.2-0.3-0.3-0.5c-0.1-0.2-0.1-0.4-0.1-0.6c0-0.3,0.1-0.6,0.2-0.8
			c0.2-0.2,0.4-0.4,0.6-0.5c0.3-0.1,0.6-0.2,1-0.2c0.3,0,0.6,0,0.8,0.1c0.3,0.1,0.5,0.2,0.8,0.3l-0.4,0.9c-0.3-0.1-0.5-0.2-0.7-0.2
			c-0.2-0.1-0.4-0.1-0.6-0.1c-0.1,0-0.3,0-0.4,0.1c-0.1,0-0.2,0.1-0.2,0.2c-0.1,0.1-0.1,0.2-0.1,0.3c0,0.1,0,0.2,0.1,0.3
			c0.1,0.1,0.2,0.2,0.3,0.3c0.2,0.1,0.3,0.2,0.6,0.3c0.3,0.1,0.5,0.3,0.7,0.4c0.2,0.1,0.4,0.3,0.5,0.5
			C186.4,114.3,186.4,114.5,186.4,114.8z"/>
		<path class="st4" d="M191.3,114.2c0,0.4,0,0.7-0.1,0.9c-0.1,0.3-0.2,0.5-0.4,0.7c-0.2,0.2-0.4,0.3-0.6,0.4
			c-0.3,0.1-0.5,0.1-0.9,0.1c-0.3,0-0.6,0-0.8-0.1c-0.2-0.1-0.5-0.2-0.6-0.4c-0.2-0.2-0.3-0.4-0.4-0.7c-0.1-0.3-0.1-0.6-0.1-0.9
			c0-0.5,0.1-0.9,0.2-1.2s0.4-0.6,0.7-0.7c0.3-0.2,0.7-0.3,1.1-0.3c0.4,0,0.7,0.1,1,0.3c0.3,0.2,0.5,0.4,0.7,0.7
			C191.2,113.4,191.3,113.8,191.3,114.2z M188.4,114.2c0,0.3,0,0.5,0.1,0.7s0.2,0.3,0.3,0.4s0.3,0.1,0.5,0.1c0.2,0,0.4,0,0.5-0.1
			c0.1-0.1,0.2-0.2,0.3-0.4c0.1-0.2,0.1-0.4,0.1-0.7c0-0.3,0-0.5-0.1-0.7c-0.1-0.2-0.2-0.3-0.3-0.4s-0.3-0.1-0.5-0.1
			c-0.3,0-0.5,0.1-0.7,0.3C188.5,113.5,188.4,113.8,188.4,114.2z"/>
		<path class="st4" d="M193.6,116.3h-1.1v-5.8h1.1V116.3z"/>
		<path class="st4" d="M198.8,112.2v4.2h-0.9l-0.2-0.5h-0.1c-0.1,0.1-0.2,0.3-0.3,0.3s-0.3,0.2-0.4,0.2c-0.2,0-0.3,0.1-0.5,0.1
			c-0.3,0-0.6-0.1-0.8-0.2c-0.2-0.1-0.4-0.3-0.5-0.5c-0.1-0.2-0.2-0.5-0.2-0.9v-2.7h1.1v2.5c0,0.3,0.1,0.5,0.2,0.7
			c0.1,0.2,0.3,0.2,0.5,0.2c0.2,0,0.4-0.1,0.5-0.2c0.1-0.1,0.2-0.3,0.3-0.5c0.1-0.2,0.1-0.5,0.1-0.8v-2H198.8z"/>
		<path class="st4" d="M201.9,115.5c0.1,0,0.2,0,0.4,0c0.1,0,0.2-0.1,0.4-0.1v0.9c-0.1,0.1-0.3,0.1-0.5,0.1c-0.2,0-0.4,0.1-0.6,0.1
			c-0.3,0-0.5,0-0.7-0.1c-0.2-0.1-0.4-0.2-0.5-0.4c-0.1-0.2-0.2-0.5-0.2-0.8v-2h-0.5v-0.5l0.6-0.4l0.3-0.9h0.7v0.9h1.2v0.9h-1.2v2
			c0,0.2,0,0.3,0.1,0.4C201.6,115.5,201.7,115.5,201.9,115.5z"/>
		<path class="st4" d="M204.2,110.5c0.2,0,0.3,0,0.4,0.1c0.1,0.1,0.2,0.2,0.2,0.4c0,0.2-0.1,0.4-0.2,0.4c-0.1,0.1-0.3,0.1-0.4,0.1
			c-0.2,0-0.3,0-0.4-0.1c-0.1-0.1-0.2-0.2-0.2-0.4c0-0.2,0.1-0.4,0.2-0.4C203.9,110.5,204,110.5,204.2,110.5z M204.8,112.2v4.2h-1.1
			v-4.2H204.8z"/>
		<path class="st4" d="M209.9,114.2c0,0.4,0,0.7-0.1,0.9c-0.1,0.3-0.2,0.5-0.4,0.7c-0.2,0.2-0.4,0.3-0.6,0.4
			c-0.3,0.1-0.5,0.1-0.9,0.1c-0.3,0-0.6,0-0.8-0.1c-0.2-0.1-0.5-0.2-0.6-0.4c-0.2-0.2-0.3-0.4-0.4-0.7c-0.1-0.3-0.1-0.6-0.1-0.9
			c0-0.5,0.1-0.9,0.2-1.2c0.2-0.3,0.4-0.6,0.7-0.7c0.3-0.2,0.7-0.3,1.1-0.3c0.4,0,0.7,0.1,1,0.3c0.3,0.2,0.5,0.4,0.7,0.7
			C209.8,113.4,209.9,113.8,209.9,114.2z M207,114.2c0,0.3,0,0.5,0.1,0.7s0.2,0.3,0.3,0.4c0.1,0.1,0.3,0.1,0.5,0.1
			c0.2,0,0.4,0,0.5-0.1c0.1-0.1,0.2-0.2,0.3-0.4c0.1-0.2,0.1-0.4,0.1-0.7c0-0.3,0-0.5-0.1-0.7c-0.1-0.2-0.2-0.3-0.3-0.4
			c-0.1-0.1-0.3-0.1-0.5-0.1c-0.3,0-0.5,0.1-0.7,0.3C207.1,113.5,207,113.8,207,114.2z"/>
		<path class="st4" d="M213.4,112.1c0.4,0,0.8,0.1,1.1,0.4c0.3,0.2,0.4,0.6,0.4,1.2v2.7h-1.1v-2.5c0-0.3-0.1-0.5-0.2-0.7
			c-0.1-0.2-0.3-0.2-0.5-0.2c-0.4,0-0.6,0.1-0.7,0.4c-0.1,0.2-0.2,0.6-0.2,1v2H211v-4.2h0.9l0.2,0.5h0.1c0.1-0.1,0.2-0.3,0.3-0.4
			c0.1-0.1,0.3-0.2,0.4-0.2C213.1,112.1,213.2,112.1,213.4,112.1z"/>
		<path class="st4" d="M219.2,115.1c0,0.3-0.1,0.5-0.2,0.7c-0.1,0.2-0.3,0.3-0.6,0.4c-0.3,0.1-0.6,0.2-1,0.2c-0.3,0-0.5,0-0.8-0.1
			c-0.2,0-0.4-0.1-0.6-0.2v-0.9c0.2,0.1,0.5,0.2,0.7,0.3c0.3,0.1,0.5,0.1,0.7,0.1c0.2,0,0.4,0,0.5-0.1c0.1-0.1,0.1-0.2,0.1-0.3
			c0-0.1,0-0.1-0.1-0.2c0-0.1-0.1-0.1-0.2-0.2c-0.1-0.1-0.3-0.2-0.6-0.3c-0.3-0.1-0.5-0.2-0.6-0.3c-0.2-0.1-0.3-0.2-0.4-0.4
			c-0.1-0.2-0.1-0.3-0.1-0.6c0-0.4,0.2-0.7,0.5-0.9c0.3-0.2,0.7-0.3,1.2-0.3c0.3,0,0.5,0,0.7,0.1c0.2,0.1,0.5,0.1,0.7,0.3l-0.3,0.8
			c-0.2-0.1-0.4-0.2-0.6-0.2c-0.2-0.1-0.4-0.1-0.6-0.1c-0.2,0-0.3,0-0.4,0.1c-0.1,0-0.1,0.1-0.1,0.2c0,0.1,0,0.1,0.1,0.2
			c0,0.1,0.1,0.1,0.3,0.2c0.1,0.1,0.3,0.1,0.6,0.2c0.2,0.1,0.4,0.2,0.6,0.3c0.2,0.1,0.3,0.2,0.4,0.4
			C219.1,114.7,219.2,114.9,219.2,115.1z"/>
		<path class="st4" d="M220,115.8c0-0.2,0.1-0.4,0.2-0.5c0.1-0.1,0.3-0.1,0.5-0.1c0.2,0,0.3,0,0.5,0.1c0.1,0.1,0.2,0.3,0.2,0.5
			c0,0.2-0.1,0.4-0.2,0.5c-0.1,0.1-0.3,0.2-0.5,0.2c-0.2,0-0.3-0.1-0.5-0.2C220.1,116.2,220,116,220,115.8z"/>
		<path class="st4" d="M224.8,116.3v-5.5h1.2v5.5H224.8z"/>
		<path class="st4" d="M232.3,112.1c0.5,0,0.8,0.1,1.1,0.4c0.2,0.2,0.4,0.6,0.4,1.2v2.7h-1.1v-2.5c0-0.3-0.1-0.5-0.2-0.7
			c-0.1-0.2-0.3-0.2-0.5-0.2c-0.3,0-0.5,0.1-0.6,0.3c-0.1,0.2-0.2,0.5-0.2,0.9v2.1H230v-2.5c0-0.2,0-0.4-0.1-0.5
			c0-0.1-0.1-0.2-0.2-0.3c-0.1-0.1-0.2-0.1-0.4-0.1c-0.2,0-0.4,0.1-0.5,0.2c-0.1,0.1-0.2,0.3-0.3,0.5c-0.1,0.2-0.1,0.5-0.1,0.8v2
			h-1.1v-4.2h0.9l0.2,0.5h0.1c0.1-0.1,0.2-0.3,0.3-0.4c0.1-0.1,0.3-0.2,0.4-0.2s0.3-0.1,0.5-0.1c0.3,0,0.6,0.1,0.8,0.2
			c0.2,0.1,0.4,0.3,0.5,0.5h0.1c0.1-0.2,0.3-0.4,0.5-0.5C231.9,112.1,232.1,112.1,232.3,112.1z"/>
		<path class="st4" d="M237.4,112.1c0.5,0,0.9,0.2,1.1,0.6c0.3,0.4,0.4,0.9,0.4,1.6c0,0.5-0.1,0.9-0.2,1.2c-0.1,0.3-0.3,0.6-0.6,0.7
			c-0.2,0.2-0.5,0.2-0.8,0.2c-0.2,0-0.4,0-0.5-0.1c-0.1-0.1-0.3-0.1-0.4-0.2c-0.1-0.1-0.2-0.2-0.3-0.3h-0.1c0,0.1,0,0.2,0,0.3
			c0,0.1,0,0.2,0,0.3v1.7h-1.1v-6h0.9l0.2,0.5h0.1c0.1-0.1,0.2-0.2,0.3-0.3s0.2-0.2,0.4-0.2C237.1,112.1,237.2,112.1,237.4,112.1z
			 M237.1,113c-0.2,0-0.4,0-0.5,0.1c-0.1,0.1-0.2,0.2-0.3,0.4c-0.1,0.2-0.1,0.4-0.1,0.6v0.1c0,0.3,0,0.5,0.1,0.7
			c0.1,0.2,0.1,0.3,0.3,0.4c0.1,0.1,0.3,0.1,0.5,0.1c0.2,0,0.3,0,0.4-0.1c0.1-0.1,0.2-0.2,0.3-0.4c0.1-0.2,0.1-0.4,0.1-0.7
			c0-0.4-0.1-0.7-0.2-0.9C237.5,113.1,237.3,113,237.1,113z"/>
		<path class="st4" d="M241.8,112.1c0.6,0,1,0.1,1.3,0.4c0.3,0.2,0.5,0.6,0.5,1.1v2.8h-0.8l-0.2-0.6h0c-0.1,0.2-0.2,0.3-0.4,0.4
			c-0.1,0.1-0.3,0.2-0.4,0.2s-0.4,0.1-0.6,0.1c-0.2,0-0.5,0-0.7-0.1s-0.4-0.2-0.5-0.4c-0.1-0.2-0.2-0.4-0.2-0.7c0-0.4,0.2-0.8,0.5-1
			c0.3-0.2,0.8-0.3,1.4-0.4l0.7,0v-0.2c0-0.2-0.1-0.4-0.2-0.5s-0.3-0.2-0.5-0.2c-0.2,0-0.4,0-0.6,0.1s-0.4,0.1-0.6,0.2l-0.4-0.8
			c0.2-0.1,0.5-0.2,0.7-0.3C241.3,112.1,241.5,112.1,241.8,112.1z M242.5,114.4l-0.4,0c-0.4,0-0.6,0.1-0.8,0.2
			c-0.1,0.1-0.2,0.3-0.2,0.5c0,0.2,0.1,0.3,0.2,0.4c0.1,0.1,0.2,0.1,0.4,0.1c0.2,0,0.5-0.1,0.6-0.2c0.2-0.1,0.3-0.4,0.3-0.6V114.4z"
			/>
		<path class="st4" d="M246.6,116.4c-0.4,0-0.8-0.1-1.1-0.2c-0.3-0.2-0.5-0.4-0.7-0.7c-0.2-0.3-0.2-0.7-0.2-1.2
			c0-0.5,0.1-0.9,0.3-1.3c0.2-0.3,0.4-0.6,0.7-0.7c0.3-0.2,0.7-0.2,1.1-0.2c0.3,0,0.5,0,0.8,0.1c0.2,0.1,0.4,0.1,0.6,0.2l-0.3,0.9
			c-0.2-0.1-0.3-0.1-0.5-0.2c-0.2,0-0.3-0.1-0.5-0.1c-0.2,0-0.4,0-0.5,0.1c-0.1,0.1-0.2,0.2-0.3,0.4c-0.1,0.2-0.1,0.4-0.1,0.7
			c0,0.3,0,0.5,0.1,0.7c0.1,0.2,0.2,0.3,0.3,0.4c0.1,0.1,0.3,0.1,0.5,0.1c0.2,0,0.4,0,0.6-0.1c0.2-0.1,0.4-0.2,0.5-0.3v1
			c-0.2,0.1-0.4,0.2-0.6,0.2C247.2,116.4,246.9,116.4,246.6,116.4z"/>
		<path class="st4" d="M250.8,115.5c0.1,0,0.2,0,0.4,0s0.2-0.1,0.4-0.1v0.9c-0.1,0.1-0.3,0.1-0.5,0.1c-0.2,0-0.4,0.1-0.6,0.1
			c-0.2,0-0.5,0-0.7-0.1c-0.2-0.1-0.4-0.2-0.5-0.4c-0.1-0.2-0.2-0.5-0.2-0.8v-2h-0.5v-0.5l0.6-0.4l0.3-0.9h0.7v0.9h1.2v0.9h-1.2v2
			c0,0.2,0,0.3,0.1,0.4C250.5,115.5,250.6,115.5,250.8,115.5z"/>
		<path class="st4" d="M252.4,115.8c0-0.2,0.1-0.4,0.2-0.5c0.1-0.1,0.3-0.1,0.5-0.1c0.2,0,0.3,0,0.5,0.1c0.1,0.1,0.2,0.3,0.2,0.5
			c0,0.2-0.1,0.4-0.2,0.5c-0.1,0.1-0.3,0.2-0.5,0.2c-0.2,0-0.3-0.1-0.5-0.2C252.4,116.2,252.4,116,252.4,115.8z"/>
	</g>
	<line class="st9" x1="141.2" y1="104.6" x2="232.7" y2="104.6"/>
</g>
</svg>
