<?xml version="1.0" encoding="utf-8"?>
<!-- Generator: Adobe Illustrator 26.5.0, SVG Export Plug-In . SVG Version: 6.00 Build 0)  -->
<svg version="1.1" id="Layer_1" xmlns="http://www.w3.org/2000/svg" xmlns:xlink="http://www.w3.org/1999/xlink" x="0px" y="0px"
	 viewBox="0 0 258.2 107.6" style="enable-background:new 0 0 258.2 107.6;" xml:space="preserve">
<style type="text/css">
	.st0{fill:#FFFFFF;}
	.st1{fill:#253B7C;}
	.st2{font-family:'TradeGothicNextLTPro-HvCm';}
	.st3{font-size:29.155px;}
	.st4{fill:#8098C1;}
	.st5{fill:#FFCD03;}
</style>
<g>
	<g>
		<path class="st0" d="M129.3,69.8l-0.7-6.7h-3.8l-0.6,6.7h-6.4l4.8-31.1h8l5.1,31.1H129.3z M125.3,57.5h2.7l-1.3-11.7h-0.2
			L125.3,57.5z"/>
		<path class="st0" d="M150,69.8l-5.8-16.4h-0.1v16.3h-5.3v-31h6l4.8,14.1h0.1V38.7h5.4v31.1H150z"/>
		<path class="st0" d="M168.5,47.1c-0.1-1.6-0.5-3.4-2.1-3.4c-1.1,0-1.6,0.8-1.6,1.8c0,5.8,9.6,7.5,9.6,16.7c0,4.9-3,8-8.1,8
			c-5.7,0-7.5-3-7.8-8.4l5.8-0.4c0.2,2.4,0.6,3.6,2.1,3.6c1.1,0,1.8-0.8,1.8-2.3c0-5.9-9.3-7.7-9.3-16.6c0-4.5,2.5-7.6,7.4-7.6
			c5.9,0,7.4,3.8,7.7,8.3L168.5,47.1z"/>
		<path class="st0" d="M191.2,69.8l-1.9-18.4h-0.1l-1.5,18.3h-6.3l-4.8-31.1h6l1.9,18h0.1l1.9-18h5.9l2.1,18h0.1l1.6-18h6l-4.6,31.1
			L191.2,69.8L191.2,69.8z"/>
		<path class="st0" d="M205.3,69.8V38.7h13.9v5.8h-7.7v6.4h6.1v5.6h-6.1v7.4h8.1v5.8L205.3,69.8L205.3,69.8z"/>
		<path class="st0" d="M233.7,69.8l-2.5-12h-1.4v12h-6.2V38.7h7.6c5.4,0,8.4,2,8.4,8.7c0,3.7-1.2,5.9-2.9,7.1l3.8,15.3H233.7z
			 M230.4,52.5c2,0,2.6-1,2.6-4.3c0-4.2-1.7-4.2-2.6-4.2h-0.6v8.5H230.4z"/>
		<path class="st0" d="M252.3,47.1c-0.1-1.6-0.5-3.4-2.1-3.4c-1.1,0-1.6,0.8-1.6,1.8c0,5.8,9.6,7.5,9.6,16.7c0,4.9-3,8-8.1,8
			c-5.7,0-7.5-3-7.8-8.4l5.8-0.4c0.2,2.4,0.6,3.6,2.1,3.6c1.1,0,1.8-0.8,1.8-2.3c0-5.9-9.3-7.7-9.3-16.6c0-4.5,2.5-7.6,7.4-7.6
			c5.9,0,7.4,3.8,7.7,8.3L252.3,47.1z"/>
	</g>
	<text transform="matrix(1 0 0 1 185.533 69.7445)" class="st1 st2 st3"> </text>
	<g>
		<path class="st4" d="M142.2,32.7V11.8h4.3v20.9H142.2z"/>
		<path class="st4" d="M150.8,32.7V11.8h4.2v17h5.2v3.9H150.8z"/>
		<path class="st4" d="M163.6,32.7V11.8h4.2v17h5.2v3.9H163.6z"/>
		<path class="st4" d="M176.3,32.7V11.8h4.3v20.9H176.3z"/>
		<path class="st4" d="M192.4,32.7l-4-11h-0.1v11h-3.6V11.8h4l3.3,9.5h0.1v-9.5h3.6v20.9H192.4z"/>
		<path class="st4" d="M199.7,22.3c0-7.9,1.4-10.7,5.8-10.7c4.3,0,5.8,2.9,5.8,10.7c0,7-1.2,10.7-5.8,10.7S199.7,29.3,199.7,22.3z
			 M206.8,22.3c0-5.6-0.3-6.9-1.3-6.9s-1.3,1.3-1.3,6.9c0,6.2,0.5,7,1.3,7C206.4,29.3,206.8,28.5,206.8,22.3z"/>
		<path class="st4" d="M215.2,32.7V11.8h4.3v20.9H215.2z"/>
		<path class="st4" d="M229.7,17.4c-0.1-1.1-0.3-2.3-1.4-2.3c-0.8,0-1,0.5-1,1.2c0,3.9,6.5,5,6.5,11.3c0,3.3-2,5.4-5.5,5.4
			c-3.8,0-5-2-5.3-5.7l3.9-0.3c0.1,1.6,0.4,2.4,1.4,2.4c0.7,0,1.2-0.5,1.2-1.5c0-4-6.3-5.2-6.3-11.2c0-3.1,1.7-5.1,5-5.1
			c4,0,5,2.6,5.2,5.6L229.7,17.4z"/>
	</g>
	<g>
		<path class="st4" d="M142.8,96.4V75.5h4.7c4.1,0,6.3,1.9,6.3,6.4c0,4.1-2,6.6-6.3,6.6H147v7.9H142.8z M147.6,84.8
			c0.9,0,1.7-0.7,1.7-2.8c0-2.1-0.7-2.5-1.7-2.5H147v5.4L147.6,84.8L147.6,84.8z"/>
		<path class="st4" d="M164.3,96.4l-1.7-8.1h-1v8.1h-4.2V75.5h5.1c3.7,0,5.7,1.4,5.7,5.8c0,2.5-0.8,4-2,4.8l2.5,10.3
			C168.7,96.4,164.3,96.4,164.3,96.4z M162,84.8c1.3,0,1.8-0.7,1.8-2.9c0-2.8-1.1-2.8-1.8-2.8h-0.4v5.7
			C161.6,84.8,162,84.8,162,84.8z"/>
		<path class="st4" d="M171.4,86c0-7.9,1.4-10.7,5.8-10.7c4.3,0,5.8,2.9,5.8,10.7c0,7-1.2,10.7-5.8,10.7
			C172.6,96.6,171.4,92.9,171.4,86z M178.5,86c0-5.6-0.3-6.9-1.3-6.9s-1.3,1.3-1.3,6.9c0,6.2,0.5,7,1.3,7S178.5,92.1,178.5,86z"/>
		<path class="st4" d="M187.2,96.6c-0.4,0-1.2,0-1.8-0.1v-3.9c0.3,0.1,0.8,0.1,1,0.1c1.3,0,1.8-0.7,1.8-1.9V75.5h4.2v15.2
			C192.4,94.5,191.1,96.6,187.2,96.6z"/>
		<path class="st4" d="M196.7,96.4V75.5h9.4v3.9H201v4.3h4.1v3.8H201v5h5.5v3.9H196.7z"/>
		<path class="st4" d="M220.8,88.9c-0.1,4.2-1.1,7.7-5.4,7.7c-5,0-5.6-4.3-5.6-10.8c0-4.8,0.3-10.6,5.5-10.6c4.5,0,5.2,3.3,5.3,7.3
			h-3.9c-0.1-2-0.3-3.4-1.2-3.4c-1,0-1.3,1.4-1.3,6.7c0,6.1,0.3,7,1.3,7s1.2-1.6,1.3-4h4V88.9z"/>
		<path class="st4" d="M226,96.4v-17h-2.9v-3.9h9.9v3.9h-2.9v17H226z"/>
	</g>
	<g>
		<path class="st0" d="M39.1,19.6h26.6c0,0,1.3,4.3,1.6,5.4c0.3,1.1,1.5,4.3,1.5,4.3l-0.4,31c0,0-1.1,1.8-0.9,2.5s1.6,3,1.1,4.5
			s-4.8,7.6-4.9,8.9c-0.1,1.2,0.2,3.5-0.4,4c-0.6,0.5,0.2,3.4-0.6,3.4s-3.4,0.2-3.3,0.8c0.1,0.6,0.7,3.5-0.8,3.3s-3.8-2.1-4.1-1.5
			s-1.9,3.9-2.4,3.5s-2.4-3.7-2.4-4.4s0.3-1.8-1.1-4.3c-1.4-2.6-2.5-3-3.6-3.6s-3.8-3.8-3.6-4.9s2.5-5.4,1.8-6.1s-3.2-1.9-4-1.4
			s-1.5-2.3-1.7-3.3c-0.2-0.9-5.7-5.5-6.3-7c-0.6-1.5-1.2-4.4,0-6.8c1.2-2.4,0-3,0.6-3.5s2.7-1.1,3-2.4c0.3-1.3,1.5-3.6,0.7-4.4
			c-0.8-0.8-1.9-3.1-1.1-3.6c0.8-0.5,3.7-0.9,4.4-1.2s3.7-2.2,4-3.7c0.3-1.4,1.1-4.2,0.2-4.8C42.1,23.7,39.1,19.6,39.1,19.6"/>
		<path class="st5" d="M89.7,85.4c0.9,3.1,3.2,10.6,3.3,13.5c-2.9-0.4-10.2-3.3-13.1-4.5c-5-2-5.5-2.2-6.7-1.6
			c-17.7,9.7-39.6,6.1-53.2-8.9C3.8,66.1,5,38.2,22.8,21.7C40.6,5.3,68.3,6.5,84.6,24.4c13.6,15,15.4,37.3,4.2,54.2
			C88,79.7,88.2,80.3,89.7,85.4 M97,82.5c12.8-20.1,10.6-46.2-5.6-63.9C71.8-2.8,38.4-4.2,17,15.4s-22.9,53-3.2,74.4
			c16.2,17.7,42,22.2,63.1,11.1c0.9,0.3,2.4,0.9,3.8,1.5c12.6,5,17.5,6.4,19.9,4.2l0,0c2.4-2.2,1.4-7.2-2.5-20.2
			C97.7,85,97.2,83.4,97,82.5"/>
	</g>
</g>
</svg>
